<svg xmlns="http://www.w3.org/2000/svg" viewBox="0 0 64 64" fill="none">
  <defs>
    <linearGradient id="dearlyTile" x1="0" y1="0" x2="0" y2="64" gradientUnits="userSpaceOnUse">
      <stop offset="0" stop-color="#fdf8f5" />
      <stop offset="1" stop-color="#f3e8e0" />
    </linearGradient>
    <linearGradient id="dearlyWave" x1="0" y1="12" x2="0" y2="52" gradientUnits="userSpaceOnUse">
      <stop offset="0" stop-color="#d4a396" />
      <stop offset="1" stop-color="#a36a5e" />
    </linearGradient>
  </defs>
  <rect x="0" y="0" width="64" height="64" rx="14" fill="url(#dearlyTile)" />
  <g fill="url(#dearlyWave)" transform="translate(7 7) scale(0.78)">
    <rect x="13.1" y="25.6" width="2.6" height="12.8" rx="1.3" />
    <rect x="17.5" y="20" width="2.6" height="24" rx="1.3" />
    <rect x="21.9" y="13.6" width="2.6" height="36.8" rx="1.3" />
    <rect x="26.3" y="17.2" width="2.6" height="29.6" rx="1.3" />
    <rect x="30.7" y="12" width="2.6" height="40" rx="1.3" />
    <rect x="35.1" y="17.2" width="2.6" height="29.6" rx="1.3" />
    <rect x="39.5" y="13.6" width="2.6" height="36.8" rx="1.3" />
    <rect x="43.9" y="20" width="2.6" height="24" rx="1.3" />
    <rect x="48.3" y="25.6" width="2.6" height="12.8" rx="1.3" />
  </g>
</svg>
